<svg width="1600" height="1600" viewBox="0 0 1600 1600" fill="none" xmlns="http://www.w3.org/2000/svg">
<g clip-path="url(#clip0_38_207)">
<circle cx="801" cy="807" r="799" fill="white"/>
<path d="M1114.85 234.01H485.142C427.215 234.01 380 281.15 380 339.109V1260.9C380 1318.83 427.176 1366 485.142 1366H1114.86C1172.79 1366 1220 1318.86 1220 1260.9L1220 339.068C1220 281.143 1172.78 234 1114.85 234L1114.85 234.01ZM677.983 302.381H921.693L920.779 414.206L677.98 412.991L677.983 302.381ZM921.997 1297.56H678.287L679.236 1185.77L922.035 1186.99L922.039 1297.56L921.997 1297.56ZM1151.58 1260.86C1151.58 1281.11 1135.09 1297.56 1114.85 1297.56H990.408V1186.99C990.408 1148.59 959.185 1117.36 920.781 1117.36L679.198 1117.37C640.794 1117.37 609.572 1148.59 609.572 1186.99V1297.56H485.134C464.887 1297.56 448.403 1281.11 448.403 1260.87L448.399 834.162H625.215C641.244 916.093 713.455 978.197 799.986 978.197C886.517 978.197 958.762 916.094 974.756 834.162H1151.57L1151.58 1260.86ZM903.835 834.158C889.361 877.915 848.568 909.786 799.99 909.786C751.412 909.786 710.611 877.919 696.145 834.158H903.835ZM696.134 765.787C710.608 722.031 751.402 690.16 799.98 690.16C848.558 690.16 889.358 722.027 903.825 765.787H696.134ZM1151.57 765.787H974.75C958.722 683.857 886.511 621.752 799.98 621.752C713.448 621.752 641.203 683.856 625.209 765.787H448.393V339.082C448.393 318.836 464.876 302.387 485.124 302.387H609.562V412.956C609.562 451.359 640.784 482.581 679.188 482.581H920.731C959.135 482.581 990.357 451.359 990.357 412.956V302.387H1114.8C1135.04 302.387 1151.53 318.835 1151.53 339.082V765.787H1151.57Z" fill="#16213E"/>
</g>
<defs>
<clipPath id="clip0_38_207">
<rect width="1600" height="1600" fill="white"/>
</clipPath>
</defs>
</svg>
