<svg width="1600" height="1600" viewBox="0 0 1600 1600" fill="none" xmlns="http://www.w3.org/2000/svg">
<path d="M1600 801C1600 1242.28 1242.28 1600 801 1600C359.724 1600 2 1242.28 2 801C2 359.724 359.724 2 801 2C1242.28 2 1600 359.724 1600 801Z" fill="#55964D"/>
<path d="M1115.85 235.01H486.142C428.215 235.01 381 282.15 381 340.109V1261.9C381 1319.83 428.176 1367 486.142 1367H1115.86C1173.79 1367 1221 1319.86 1221 1261.9L1221 340.068C1221 282.143 1173.78 235 1115.85 235L1115.85 235.01ZM678.983 303.381H922.693L921.779 415.206L678.98 413.991L678.983 303.381ZM922.997 1298.56H679.287L680.236 1186.77L923.035 1187.99L923.039 1298.56L922.997 1298.56ZM1152.58 1261.86C1152.58 1282.11 1136.09 1298.56 1115.85 1298.56H991.408V1187.99C991.408 1149.59 960.185 1118.36 921.781 1118.36L680.198 1118.37C641.794 1118.37 610.572 1149.59 610.572 1187.99V1298.56H486.134C465.887 1298.56 449.403 1282.11 449.403 1261.87L449.399 835.162H626.215C642.244 917.093 714.455 979.197 800.986 979.197C887.517 979.197 959.762 917.094 975.756 835.162H1152.57L1152.58 1261.86ZM904.835 835.158C890.361 878.915 849.568 910.786 800.99 910.786C752.412 910.786 711.611 878.919 697.145 835.158H904.835ZM697.134 766.787C711.608 723.031 752.402 691.16 800.98 691.16C849.558 691.16 890.358 723.027 904.825 766.787H697.134ZM1152.57 766.787H975.75C959.722 684.857 887.511 622.752 800.98 622.752C714.448 622.752 642.203 684.856 626.209 766.787H449.393V340.082C449.393 319.836 465.876 303.387 486.124 303.387H610.562V413.956C610.562 452.359 641.784 483.581 680.188 483.581H921.731C960.135 483.581 991.357 452.359 991.357 413.956V303.387H1115.8C1136.04 303.387 1152.53 319.835 1152.53 340.082V766.787H1152.57Z" fill="white"/>
</svg>
